<!DOCTYPE svg PUBLIC "-//W3C//DTD SVG 1.1//EN" "http://www.w3.org/Graphics/SVG/1.1/DTD/svg11.dtd">
<!-- Uploaded to: SVG Repo, www.svgrepo.com, Transformed by: SVG Repo Mixer Tools -->
<svg fill="#000000" width="800px" height="800px" viewBox="0 0 24 24" id="link" data-name="Flat Color" xmlns="http://www.w3.org/2000/svg" class="icon flat-color">
<g id="SVGRepo_bgCarrier" stroke-width="0"/>
<g id="SVGRepo_tracerCarrier" stroke-linecap="round" stroke-linejoin="round"/>
<g id="SVGRepo_iconCarrier">
<path id="primary" d="M11.71,12.29a4,4,0,0,1,0,5.66L9.45,20.21a4,4,0,0,1-5.66-5.66l2.26-2.26A4.1,4.1,0,0,1,11.71,12.29Zm9-9a4.1,4.1,0,0,0-5.66,0L12.29,6.05A4,4,0,0,0,18,11.71L20.71,9a4,4,0,0,0,0-5.66Z" style="fill: #2ca9bc;"/>
<path id="secondary" d="M10,15a1,1,0,0,1-.71-.29,1,1,0,0,1,0-1.42l4-4a1,1,0,0,1,1.42,1.42l-4,4A1,1,0,0,1,10,15Z" style="fill: #2ca9bc;"/>
</g>
</svg>